<?xml version="1.0" encoding="UTF-8"?>
<svg version="1.1" xmlns="http://www.w3.org/2000/svg" width="497" height="465">
<path d="M0 0 C164.01 0 328.02 0 497 0 C497 153.45 497 306.9 497 465 C332.99 465 168.98 465 0 465 C0 311.55 0 158.1 0 0 Z " fill="#EDEFFC" transform="translate(0,0)"/>
<path d="M0 0 C26.73 0 53.46 0 81 0 C81 0.66 81 1.32 81 2 C82.30710937 1.88205078 82.30710937 1.88205078 83.640625 1.76171875 C87.78215732 2.0554786 89.4812193 3.30673579 92.75 5.8125 C93.69359375 6.52019531 94.6371875 7.22789062 95.609375 7.95703125 C98 10 98 10 100 13 C100 13.99 100 14.98 100 16 C100.99 16 101.98 16 103 16 C107.98792815 24.31321358 110.06906518 31.17717756 109 41 C107.97867116 44.20262845 106.63586542 47.06989568 105 50 C104.505 50.99 104.505 50.99 104 52 C103.34 52 102.68 52 102 52 C102 53.32 102 54.64 102 56 C101.34 56 100.68 56 100 56 C100 56.66 100 57.32 100 58 C99.34 58 98.68 58 98 58 C98 58.66 98 59.32 98 60 C97.34 60 96.68 60 96 60 C96 60.66 96 61.32 96 62 C95.01 62.66 94.02 63.32 93 64 C92.505 65.485 92.505 65.485 92 67 C92.763125 67.144375 93.52625 67.28875 94.3125 67.4375 C97 68 97 68 100 69 C100 69.66 100 70.32 100 71 C100.99 71 101.98 71 103 71 C103 71.66 103 72.32 103 73 C103.66 73 104.32 73 105 73 C107.125 74.8125 107.125 74.8125 109 77 C109 77.99 109 78.98 109 80 C109.66 80 110.32 80 111 80 C116.28199678 89.17275334 115.37738963 98.78951389 115 109 C114.34 109 113.68 109 113 109 C113.04125 109.7425 113.0825 110.485 113.125 111.25 C112.99601866 114.08758952 112.42948778 115.58773938 111 118 C110.34 118 109.68 118 109 118 C109 119.32 109 120.64 109 122 C108.34 122 107.68 122 107 122 C106.71125 122.598125 106.4225 123.19625 106.125 123.8125 C105 126 105 126 103 129 C102.34 129 101.68 129 101 129 C101 129.66 101 130.32 101 131 C92.48021093 136.21619739 84.89599275 137.42192064 75.01171875 138.1171875 C73.83534348 138.20169159 72.6589682 138.28619568 71.44694519 138.3732605 C57.24013283 139.30136686 43.04226788 139.21839084 28.8125 139.125 C26.09310486 139.1137507 23.37370323 139.10567206 20.65429688 139.09765625 C14.10278174 139.07599565 7.5514092 139.04283903 1 139 C-0.30581412 136.38837177 -0.12292877 134.48407602 -0.12025452 131.55844116 C-0.12162918 130.40295273 -0.12300385 129.24746429 -0.12442017 128.05696106 C-0.12082489 126.78310043 -0.11722961 125.50923981 -0.11352539 124.19677734 C-0.11324343 122.84674583 -0.11340143 121.49671416 -0.1139679 120.14668274 C-0.11425552 116.4754173 -0.10836443 112.80418434 -0.10139394 109.13292646 C-0.09515459 105.29854973 -0.09455614 101.46417229 -0.09336853 97.62979126 C-0.09025693 90.36603577 -0.08204585 83.10229527 -0.07201904 75.8385464 C-0.05876579 66.02502522 -0.05335661 56.21149997 -0.04751682 46.39797211 C-0.03810585 30.93197016 -0.01818579 15.46599988 0 0 Z " fill="#7062C1" transform="translate(223,152)"/>
<path d="M0 0 C9.24 0 18.48 0 28 0 C28 45.21 28 90.42 28 137 C19.64669061 141.1766547 9.33928382 138 0 138 C0 92.46 0 46.92 0 0 Z " fill="#6B6CD0" transform="translate(170,153)"/>
<path d="M0 0 C15.51 0 31.02 0 47 0 C47 0.66 47 1.32 47 2 C47.928125 2.103125 48.85625 2.20625 49.8125 2.3125 C53.02464205 3.00531495 54.11930017 3.3879169 56 6 C56 6.66 56 7.32 56 8 C56.66 8 57.32 8 58 8 C59.5912689 12.873261 60.21192221 16.80790596 60 22 C59.34 22 58.68 22 58 22 C57.9175 22.721875 57.835 23.44375 57.75 24.1875 C56.56446121 28.63327046 54.34397995 31.11133352 50.53466797 33.63012695 C45.66205893 35.51852378 41.31113812 35.37338241 36.1328125 35.29296875 C35.09808807 35.28872391 34.06336365 35.28447906 32.99728394 35.28010559 C29.70625319 35.26336996 26.41584434 35.22572649 23.125 35.1875 C20.8880297 35.17244658 18.65104977 35.15875933 16.4140625 35.14648438 C10.94227845 35.11604047 5.47183187 35.05730778 0 35 C0 23.45 0 11.9 0 0 Z " fill="#EAECFB" transform="translate(251,231)"/>
<path d="M0 0 C2.5850867 -0.13526616 5.16308752 -0.23417653 7.75 -0.3125 C8.47960937 -0.35439453 9.20921875 -0.39628906 9.9609375 -0.43945312 C12.109375 -0.48828125 12.109375 -0.48828125 16 0 C18.390625 2.45703125 18.390625 2.45703125 20 5 C20.66 5.33 21.32 5.66 22 6 C22 6.99 22 7.98 22 9 C22.66 9 23.32 9 24 9 C24.05534912 9.96301025 24.11069824 10.92602051 24.16772461 11.91821289 C24.37536256 15.51718554 24.58689589 19.11592078 24.79956055 22.71459961 C24.89078029 24.26727263 24.98096678 25.82000673 25.07006836 27.37280273 C25.1988903 29.61459232 25.33152094 31.85613036 25.46484375 34.09765625 C25.50343002 34.78336197 25.5420163 35.46906769 25.58177185 36.17555237 C25.90820478 41.56755647 26.28556995 46.85670985 28 52 C28.66 52 29.32 52 30 52 C30 52.66 30 53.32 30 54 C31.98 54 33.96 54 36 54 C36.2878026 57.05070757 36.44198649 59.95999538 36 63 C33.16755403 65.52623559 31.78435224 66 28 66 C27.87625 66.556875 27.7525 67.11375 27.625 67.6875 C27 70 27 70 25.98242188 72.20556641 C24.79157265 75.59285773 24.71087309 78.43479477 24.65625 82.0234375 C24.6416272 82.68783844 24.62700439 83.35223938 24.61193848 84.03677368 C24.56570003 86.14945528 24.53137091 88.26204863 24.5 90.375 C24.45853227 93.15397618 24.4047288 95.93232843 24.34375 98.7109375 C24.32505859 99.94118652 24.30636719 101.17143555 24.28710938 102.43896484 C23.97880236 106.26291562 23.1694722 109.36144753 22 113 C21.34 113 20.68 113 20 113 C20 113.99 20 114.98 20 116 C19.34 116 18.68 116 18 116 C18 116.66 18 117.32 18 118 C12.30154299 119.982072 7.03066943 120.49677928 1 120 C0 119 0 119 -0.09765625 116.49609375 C-0.08605469 115.48675781 -0.07445312 114.47742188 -0.0625 113.4375 C-0.05347656 112.42558594 -0.04445313 111.41367187 -0.03515625 110.37109375 C-0.02355469 109.58863281 -0.01195312 108.80617188 0 108 C2.31 108 4.62 108 7 108 C7 107.34 7 106.68 7 106 C8.32 106 9.64 106 11 106 C11.01981934 105.16750732 11.03963867 104.33501465 11.06005859 103.47729492 C11.13820742 100.385235 11.22490206 97.29356617 11.31738281 94.2019043 C11.37444092 92.2070464 11.42164442 90.2119146 11.46875 88.21679688 C11.50742187 86.96318359 11.54609375 85.70957031 11.5859375 84.41796875 C11.6173584 83.26063232 11.6487793 82.1032959 11.68115234 80.91088867 C12 78 12 78 14 75 C14.95059302 71.924552 15.8691174 68.94235473 16.3125 65.75 C17 64 17 64 19.5625 62.5625 C20.366875 62.046875 21.17125 61.53125 22 61 C22.41780879 58.37305578 22.41780879 58.37305578 22 56 C21.01 56 20.02 56 19 56 C18.566875 55.0409375 18.566875 55.0409375 18.125 54.0625 C17.17176549 51.84793921 17.17176549 51.84793921 15 51 C14.62109375 49.1875 14.62109375 49.1875 14.4375 47 C14.37334592 44.21067942 14.37334592 44.21067942 13 42 C12.91224395 39.85441173 12.89304781 37.70595579 12.90234375 35.55859375 C12.90556641 34.25341797 12.90878906 32.94824219 12.91210938 31.60351562 C12.92046599 30.2148431 12.92893095 28.82617123 12.9375 27.4375 C12.94251334 26.04492344 12.94707653 24.65234519 12.95117188 23.25976562 C12.96300566 19.8398013 12.9794912 16.41992156 13 13 C12.34 13 11.68 13 11 13 C11 12.34 11 11.68 11 11 C7.37 11 3.74 11 0 11 C0 7.37 0 3.74 0 0 Z " fill="#9EADF1" transform="translate(423,176)"/>
<path d="M0 0 C13.2 0 26.4 0 40 0 C40.495 0.99 40.495 0.99 41 2 C42.0725 2.268125 43.145 2.53625 44.25 2.8125 C48.75567268 4.23929635 50.41834615 5.01017132 53 9 C53.68714103 14.70470213 54.25686226 20.11470661 51 25 C50.34 25 49.68 25 49 25 C49 25.99 49 26.98 49 28 C39.03512621 33.03566048 29.1603368 32.46410869 18.3125 32.25 C16.53192121 32.22989695 14.75132042 32.21165294 12.97070312 32.1953125 C8.64613656 32.15506525 4.32468089 32.07673165 0 32 C0 21.44 0 10.88 0 0 Z " fill="#E6E7F9" transform="translate(251,176)"/>
<path d="M0 0 C4.95 0 9.9 0 15 0 C15 3.63 15 7.26 15 11 C12.78645833 11.22786458 10.57291667 11.45572917 8.359375 11.68359375 C6.17411119 11.97665065 4.13111026 12.44756275 2 13 C1.97494385 13.77077881 1.9498877 14.54155762 1.92407227 15.33569336 C1.80714506 18.86975836 1.68486177 22.40361916 1.5625 25.9375 C1.52318359 27.14986328 1.48386719 28.36222656 1.44335938 29.61132812 C0.72460418 50.01291781 0.72460418 50.01291781 -6.25 57.375 C-6.8275 57.91125 -7.405 58.4475 -8 59 C-7.23663401 62.05978846 -7.23663401 62.05978846 -5.0625 63.875 C2.15872915 71.31505427 1.37883408 84.41587295 1.625 94.0625 C1.66367188 95.30966797 1.70234375 96.55683594 1.7421875 97.84179688 C1.83575103 100.89430704 1.91893154 103.94713244 2 107 C5.96 107.66 9.92 108.32 14 109 C14 112.3 14 115.6 14 119 C6.50328331 119.42235024 1.60400055 118.57317904 -5 115 C-5 114.34 -5 113.68 -5 113 C-5.66 113 -6.32 113 -7 113 C-9.34894745 109.30995799 -9.23059746 106.1328897 -9.1953125 101.828125 C-9.1924826 101.1457074 -9.18965271 100.46328979 -9.18673706 99.76019287 C-9.17558098 97.58994693 -9.15048557 95.42012029 -9.125 93.25 C-9.11496426 91.77474556 -9.10583944 90.29948463 -9.09765625 88.82421875 C-9.07565687 85.21601058 -9.04115883 81.60804625 -9 78 C-9.66 78 -10.32 78 -11 78 C-11.12375 76.9275 -11.2475 75.855 -11.375 74.75 C-12.02287328 70.57480443 -12.02287328 70.57480443 -14 67 C-15.8817921 66.23769206 -15.8817921 66.23769206 -18 66 C-19.32 65.67 -20.64 65.34 -22 65 C-22 61.04 -22 57.08 -22 53 C-20.906875 52.71125 -19.81375 52.4225 -18.6875 52.125 C-14.95986155 51.18106796 -14.95986155 51.18106796 -12 49 C-9.38227307 40.49554464 -9.59586333 31.06612806 -9.375 22.25 C-9.33632813 20.96867187 -9.29765625 19.68734375 -9.2578125 18.3671875 C-9.16461064 15.2449253 -9.0788031 12.12265307 -9 9 C-8.34 9 -7.68 9 -7 9 C-7 8.01 -7 7.02 -7 6 C-6.34 6 -5.68 6 -5 6 C-5 5.34 -5 4.68 -5 4 C-4.34 4 -3.68 4 -3 4 C-3 3.34 -3 2.68 -3 2 C-2.01 2 -1.02 2 0 2 C0 1.34 0 0.68 0 0 Z " fill="#A1B0F1" transform="translate(64,176)"/>
<path d="M0 0 C26.73 0 53.46 0 81 0 C81 0.66 81 1.32 81 2 C81.845625 1.896875 82.69125 1.79375 83.5625 1.6875 C88.13454663 2.1031406 90.54189139 4.13529464 94 7 C91 8 91 8 88.3125 6.6875 C87.549375 6.130625 86.78625 5.57375 86 5 C86 4.34 86 3.68 86 3 C58.28 2.67 30.56 2.34 2 2 C2.165 14.4575 2.33 26.915 2.5 39.75 C2.9079279 71.83905137 3.09608551 103.90744132 3 136 C30.06 136 57.12 136 85 136 C85 135.34 85 134.68 85 134 C87.31 134 89.62 134 92 134 C92 133.34 92 132.68 92 132 C95 131 98 130 101 129 C101 129.66 101 130.32 101 131 C92.48021093 136.21619739 84.89599275 137.42192064 75.01171875 138.1171875 C73.83534348 138.20169159 72.6589682 138.28619568 71.44694519 138.3732605 C57.24013283 139.30136686 43.04226788 139.21839084 28.8125 139.125 C26.09310486 139.1137507 23.37370323 139.10567206 20.65429688 139.09765625 C14.10278174 139.07599565 7.5514092 139.04283903 1 139 C-0.30581412 136.38837177 -0.12292877 134.48407602 -0.12025452 131.55844116 C-0.12162918 130.40295273 -0.12300385 129.24746429 -0.12442017 128.05696106 C-0.12082489 126.78310043 -0.11722961 125.50923981 -0.11352539 124.19677734 C-0.11324343 122.84674583 -0.11340143 121.49671416 -0.1139679 120.14668274 C-0.11425552 116.4754173 -0.10836443 112.80418434 -0.10139394 109.13292646 C-0.09515459 105.29854973 -0.09455614 101.46417229 -0.09336853 97.62979126 C-0.09025693 90.36603577 -0.08204585 83.10229527 -0.07201904 75.8385464 C-0.05876579 66.02502522 -0.05335661 56.21149997 -0.04751682 46.39797211 C-0.03810585 30.93197016 -0.01818579 15.46599988 0 0 Z " fill="#8B87D5" transform="translate(223,152)"/>
<path d="M0 0 C9.24 0 18.48 0 28 0 C28 45.21 28 90.42 28 137 C19.64669061 141.1766547 9.33928382 138 0 138 C0 92.46 0 46.92 0 0 Z M1 1 C1 45.22 1 89.44 1 135 C9.25 135 17.5 135 26 135 C26 90.78 26 46.56 26 1 C17.75 1 9.5 1 1 1 Z " fill="#8F91DD" transform="translate(170,153)"/>
<path d="M0 0 C26.73 0 53.46 0 81 0 C81 0.66 81 1.32 81 2 C81.845625 1.896875 82.69125 1.79375 83.5625 1.6875 C88.13454663 2.1031406 90.54189139 4.13529464 94 7 C91 8 91 8 88.3125 6.6875 C87.549375 6.130625 86.78625 5.57375 86 5 C86 4.34 86 3.68 86 3 C84.046875 3.03255208 82.09375 3.06510417 80.140625 3.09765625 C78 3 78 3 76.31341553 2.50672913 C73.13810429 1.81121089 70.09495417 1.83390462 66.84472656 1.79467773 C66.12065487 1.78464501 65.39658318 1.77461229 64.65056992 1.76427555 C62.31395382 1.73297086 59.97732071 1.70815266 57.640625 1.68359375 C56.19514422 1.66518289 54.7496688 1.64634581 53.30419922 1.6270752 C47.95286296 1.55871871 42.60142394 1.49860757 37.25 1.4375 C19.30625 1.2209375 19.30625 1.2209375 1 1 C1 45.88 1 90.76 1 137 C0.67 137 0.34 137 0 137 C0 91.79 0 46.58 0 0 Z " fill="#B3B2E5" transform="translate(223,152)"/>
<path d="M0 0 C15.51 0 31.02 0 47 0 C47 0.66 47 1.32 47 2 C47.928125 2.103125 48.85625 2.20625 49.8125 2.3125 C53.02464205 3.00531495 54.11930017 3.3879169 56 6 C56 6.66 56 7.32 56 8 C56.66 8 57.32 8 58 8 C59.5912689 12.873261 60.21192221 16.80790596 60 22 C59.34 22 58.68 22 58 22 C57.505 16.06 57.505 16.06 57 10 C56.34 10 55.68 10 55 10 C54.505 8.515 54.505 8.515 54 7 C51.67730041 5.75501391 51.67730041 5.75501391 48.9375 4.8125 C48.01839844 4.46832031 47.09929687 4.12414062 46.15234375 3.76953125 C45.44207031 3.51558594 44.73179687 3.26164063 44 3 C44 2.34 44 1.68 44 1 C29.81 1 15.62 1 1 1 C1 11.89 1 22.78 1 34 C16.18 34 31.36 34 47 34 C47 34.33 47 34.66 47 35 C31.49 35 15.98 35 0 35 C0 23.45 0 11.9 0 0 Z " fill="#B8B6E5" transform="translate(251,231)"/>
<path d="M0 0 C1.47193312 2.94386623 0.84936173 5.37390036 0.5625 8.625 C0.46066406 9.81351563 0.35882813 11.00203125 0.25390625 12.2265625 C0.17011719 13.14179688 0.08632813 14.05703125 0 15 C-0.66 15 -1.32 15 -2 15 C-1.99476318 15.65597168 -1.98952637 16.31194336 -1.98413086 16.98779297 C-1.96338728 19.95018563 -1.95034824 22.91256303 -1.9375 25.875 C-1.92912109 26.90753906 -1.92074219 27.94007813 -1.91210938 29.00390625 C-1.90888672 29.99003906 -1.90566406 30.97617187 -1.90234375 31.9921875 C-1.89710693 32.90339355 -1.89187012 33.81459961 -1.88647461 34.75341797 C-2 37 -2 37 -3 39 C-3.66 39 -4.32 39 -5 39 C-5.33 39.99 -5.66 40.98 -6 42 C-8.64 42 -11.28 42 -14 42 C-13.67 44.31 -13.34 46.62 -13 49 C-10.89551062 48.85890014 -8.7914123 48.71195825 -6.6875 48.5625 C-5.51574219 48.48128906 -4.34398437 48.40007812 -3.13671875 48.31640625 C0.02590958 48.1132629 0.02590958 48.1132629 3 47 C3 46.01 3 45.02 3 44 C3.66 44 4.32 44 5 44 C5.33 43.34 5.66 42.68 6 42 C6 42.99 6 43.98 6 45 C5.34 45 4.68 45 4 45 C4 45.99 4 46.98 4 48 C3.34 48 2.68 48 2 48 C2 48.66 2 49.32 2 50 C-3.69845701 51.982072 -8.96933057 52.49677928 -15 52 C-16 51 -16 51 -16.09765625 48.49609375 C-16.08605469 47.48675781 -16.07445312 46.47742188 -16.0625 45.4375 C-16.05347656 44.42558594 -16.04445313 43.41367187 -16.03515625 42.37109375 C-16.02355469 41.58863281 -16.01195312 40.80617188 -16 40 C-13.69 40 -11.38 40 -9 40 C-9 39.34 -9 38.68 -9 38 C-7.68 38 -6.36 38 -5 38 C-4.98018066 37.16750732 -4.96036133 36.33501465 -4.93994141 35.47729492 C-4.86179258 32.385235 -4.77509794 29.29356617 -4.68261719 26.2019043 C-4.62555908 24.2070464 -4.57835558 22.2119146 -4.53125 20.21679688 C-4.49257813 18.96318359 -4.45390625 17.70957031 -4.4140625 16.41796875 C-4.3826416 15.26063232 -4.3512207 14.1032959 -4.31884766 12.91088867 C-4 10 -4 10 -2 7 C-1.29187186 4.67891331 -0.61975848 2.34622853 0 0 Z " fill="#DADFF9" transform="translate(439,244)"/>
<path d="M0 0 C0.33 0 0.66 0 1 0 C1.06469482 1.13018555 1.12938965 2.26037109 1.19604492 3.42480469 C1.44263623 7.62344365 1.72019251 11.81956278 2.00708008 16.015625 C2.12685204 17.83084278 2.23825435 19.64663321 2.34106445 21.46289062 C2.4904567 24.07618282 2.6699969 26.68592602 2.85546875 29.296875 C2.89528366 30.10743347 2.93509857 30.91799194 2.97612 31.75311279 C3.2935129 35.79725486 3.49181523 37.4633233 6.36450195 40.49707031 C9.29282776 42.16698913 11.66046113 42.68934522 15 43 C15 46.63 15 50.26 15 54 C8.375 57 8.375 57 5 57 C4.87625 57.53625 4.7525 58.0725 4.625 58.625 C4 61 4 61 2.98681641 63.67431641 C1.87353823 67.42619057 1.67978194 70.67575254 1.5859375 74.5859375 C1.55688828 75.63861313 1.55688828 75.63861313 1.5272522 76.71255493 C1.46792431 78.93324999 1.42126083 81.15399823 1.375 83.375 C1.33677698 84.88934434 1.29772278 86.40366794 1.2578125 87.91796875 C1.16226266 91.61178831 1.07806063 95.3057647 1 99 C-0.485 99.495 -0.485 99.495 -2 100 C-1.83862549 99.48139404 -1.67725098 98.96278809 -1.51098633 98.4284668 C-0.85322142 95.30243359 -0.85353336 92.33940174 -0.82421875 89.14453125 C-0.80100473 87.78579207 -0.77688677 86.42706809 -0.75195312 85.06835938 C-0.71702059 82.94675733 -0.68758412 80.82571054 -0.67407227 78.70385742 C-0.55227896 62.67398414 -0.55227896 62.67398414 4 56 C6.98442705 53.59790018 8.17978238 53 12 53 C12 50.03 12 47.06 12 44 C10.02 44 8.04 44 6 44 C6 43.34 6 42.68 6 42 C5.34 42 4.68 42 4 42 C1.51157584 38.26736376 1.30052948 34.91259963 0.875 30.5625 C0.74762451 29.32149536 0.74762451 29.32149536 0.61767578 28.05541992 C-0.2540434 18.70767867 -0.1778664 9.37751204 0 0 Z " fill="#CED5F7" transform="translate(447,186)"/>
<path d="M0 0 C26.73 0 53.46 0 81 0 C81 0.66 81 1.32 81 2 C81.845625 1.896875 82.69125 1.79375 83.5625 1.6875 C88.13454663 2.1031406 90.54189139 4.13529464 94 7 C91 8 91 8 88.3125 6.6875 C87.549375 6.130625 86.78625 5.57375 86 5 C86 4.34 86 3.68 86 3 C84.046875 3.03255208 82.09375 3.06510417 80.140625 3.09765625 C78 3 78 3 76.31915283 2.50672913 C73.1127816 1.80614499 70.03443553 1.83374328 66.75292969 1.79467773 C66.03058136 1.78477814 65.30823303 1.77487854 64.56399536 1.76467896 C62.18332158 1.73316516 59.80262787 1.7083467 57.421875 1.68359375 C55.76848846 1.66301547 54.11510709 1.64201877 52.46173096 1.62062073 C48.11511417 1.56549026 43.76845062 1.51604127 39.42175293 1.46777344 C34.9842514 1.41749243 30.54681758 1.36184084 26.109375 1.30664062 C17.4063073 1.19916947 8.70318285 1.09770009 0 1 C0 0.67 0 0.34 0 0 Z " fill="#C4BFE6" transform="translate(223,152)"/>
<path d="M0 0 C0.33 0.66 0.66 1.32 1 2 C8.22639141 1.89033307 15.45272423 1.77736371 22.67900562 1.66066074 C26.03785596 1.60650951 29.39671401 1.55363786 32.75561523 1.50268555 C50.84945216 1.22735194 68.91970465 0.75535654 87 0 C87 0.33 87 0.66 87 1 C84.94921875 1.22786458 82.8984375 1.45572917 80.84765625 1.68359375 C78.98859771 1.81886614 78.98859771 1.81886614 78 3 C75.56603981 3.09498646 73.16057048 3.12558417 70.72631836 3.11352539 C69.58493156 3.11374443 69.58493156 3.11374443 68.42048645 3.1139679 C65.89357702 3.11326862 63.36674038 3.10547555 60.83984375 3.09765625 C59.0924941 3.09579212 57.34514393 3.0943682 55.59779358 3.09336853 C50.98968066 3.08954293 46.38159905 3.07971229 41.77349854 3.06866455 C37.07491479 3.05845134 32.37632601 3.0538711 27.67773438 3.04882812 C18.45180913 3.03809005 9.22590716 3.02101313 0 3 C0 2.01 0 1.02 0 0 Z " fill="#D4D6F3" transform="translate(223,289)"/>
<path d="M0 0 C1.485 0.99 1.485 0.99 3 2 C3 2.99 3 3.98 3 5 C3.66 5 4.32 5 5 5 C8.86592295 13.08142404 8.46228479 21.07970347 8.51123047 29.8984375 C8.52686412 31.84648564 8.56003012 33.79436848 8.59375 35.7421875 C8.60083984 36.8957373 8.60792969 38.04928711 8.61523438 39.23779297 C8.74220703 40.14932129 8.86917969 41.06084961 9 42 C11.90092502 43.93395001 12.89674737 44.30131941 16.1875 44.625 C18.0746875 44.810625 18.0746875 44.810625 20 45 C20 48.63 20 52.26 20 56 C19.67 56 19.34 56 19 56 C19 52.7 19 49.4 19 46 C16.0703125 46.09765625 16.0703125 46.09765625 13.140625 46.1953125 C10.53055051 45.95716702 9.1533107 45.51521122 7 44 C6.40991211 41.46899414 6.40991211 41.46899414 6.27734375 38.28515625 C6.18163086 36.54202148 6.18163086 36.54202148 6.08398438 34.76367188 C6.03564453 33.54228516 5.98730469 32.32089844 5.9375 31.0625 C5.55179733 22.29609723 4.72284958 14.36817641 2 6 C1.608125 4.783125 1.21625 3.56625 0.8125 2.3125 C0.544375 1.549375 0.27625 0.78625 0 0 Z " fill="#CDD4F7" transform="translate(59,239)"/>
<path d="M0 0 C0.33 0 0.66 0 1 0 C1.02505615 0.80743652 1.0501123 1.61487305 1.07592773 2.44677734 C1.19165487 6.08968917 1.31448635 9.73232726 1.4375 13.375 C1.47681641 14.64601562 1.51613281 15.91703125 1.55664062 17.2265625 C1.59853516 18.43828125 1.64042969 19.65 1.68359375 20.8984375 C1.72025146 22.01911621 1.75690918 23.13979492 1.79467773 24.29443359 C1.82596013 26.96712771 1.82596013 26.96712771 3 29 C3.039992 30.99960012 3.04346799 33.00047242 3 35 C3.66 35 4.32 35 5 35 C8 39.38461538 8 39.38461538 8 42 C8.804375 42.268125 9.60875 42.53625 10.4375 42.8125 C11.283125 43.204375 12.12875 43.59625 13 44 C13.33 44.99 13.66 45.98 14 47 C13.01 47 12.02 47 11 47 C10.7525 47.61875 10.505 48.2375 10.25 48.875 C8.77753937 51.37818306 7.58971163 51.83045281 5 53 C4.67 53.66 4.34 54.32 4 55 C4 53.68 4 52.36 4 51 C4.825 50.525625 5.65 50.05125 6.5 49.5625 C7.7375 48.7890625 7.7375 48.7890625 9 48 C9.41780879 45.37305578 9.41780879 45.37305578 9 43 C8.01 43 7.02 43 6 43 C5.566875 42.0409375 5.566875 42.0409375 5.125 41.0625 C4.17176549 38.84793921 4.17176549 38.84793921 2 38 C1.62109375 36.1875 1.62109375 36.1875 1.4375 34 C1.37334592 31.21067942 1.37334592 31.21067942 0 29 C-0.08775605 26.85441173 -0.10695219 24.70595579 -0.09765625 22.55859375 C-0.09443359 21.25341797 -0.09121094 19.94824219 -0.08789062 18.60351562 C-0.07953401 17.2148431 -0.07106905 15.82617123 -0.0625 14.4375 C-0.05748666 13.04492344 -0.05292347 11.65234519 -0.04882812 10.25976562 C-0.03699434 6.8398013 -0.0205088 3.41992156 0 0 Z " fill="#C4CCF6" transform="translate(436,189)"/>
<path d="M0 0 C0.495 0.99 0.495 0.99 1 2 C-7.43414323 7.16376116 -14.16103284 8.29733548 -23.96484375 8.1953125 C-24.99815323 8.1924826 -26.03146271 8.18965271 -27.09608459 8.18673706 C-30.37667722 8.17559647 -33.65699073 8.15050304 -36.9375 8.125 C-39.16991792 8.1149623 -41.40234014 8.10583783 -43.63476562 8.09765625 C-49.089938 8.07567721 -54.54494905 8.04226084 -60 8 C-60 7.67 -60 7.34 -60 7 C-45.15 7 -30.3 7 -15 7 C-15 6.34 -15 5.68 -15 5 C-12.69 5 -10.38 5 -8 5 C-8 4.34 -8 3.68 -8 3 C-7.05125 2.690625 -6.1025 2.38125 -5.125 2.0625 C-2.13919592 1.12605258 -2.13919592 1.12605258 0 0 Z " fill="#7C79D1" transform="translate(323,281)"/>
<path d="M0 0 C0.66 0 1.32 0 2 0 C1.67 0.99 1.34 1.98 1 3 C-1.64 3 -4.28 3 -7 3 C-6.67 5.31 -6.34 7.62 -6 10 C-3.89551062 9.85890014 -1.7914123 9.71195825 0.3125 9.5625 C2.07013672 9.44068359 2.07013672 9.44068359 3.86328125 9.31640625 C7.02590958 9.1132629 7.02590958 9.1132629 10 8 C10 7.01 10 6.02 10 5 C10.66 5 11.32 5 12 5 C12.33 4.34 12.66 3.68 13 3 C13 3.99 13 4.98 13 6 C12.34 6 11.68 6 11 6 C11 6.99 11 7.98 11 9 C10.34 9 9.68 9 9 9 C9 9.66 9 10.32 9 11 C3.14856425 13.035282 -1.80460742 13.16973678 -8 13 C-8 9.37 -8 5.74 -8 2 C-6.865625 1.855625 -5.73125 1.71125 -4.5625 1.5625 C-1.19222799 1.38828522 -1.19222799 1.38828522 0 0 Z " fill="#BBC5F5" transform="translate(432,283)"/>
<path d="M0 0 C0.99 0.33 1.98 0.66 3 1 C3 1.99 3 2.98 3 4 C3.66 4 4.32 4 5 4 C5.66 16.21 6.32 28.42 7 41 C4 38 4 38 3.65942383 34.72192383 C3.65989736 33.3835323 3.67676265 32.04508054 3.70703125 30.70703125 C3.71127609 30.00100266 3.71552094 29.29497406 3.71989441 28.56755066 C3.73666966 26.31547697 3.77431757 24.06430258 3.8125 21.8125 C3.82754843 20.28451815 3.84123656 18.75652224 3.85351562 17.22851562 C3.88656911 13.48533128 3.93834168 9.74281804 4 6 C3.34 6 2.68 6 2 6 C2 4.68 2 3.36 2 2 C1.34 2 0.68 2 0 2 C0 1.34 0 0.68 0 0 Z " fill="#B7C2F4" transform="translate(442,181)"/>
<path d="M0 0 C0.66 0.33 1.32 0.66 2 1 C1.67 1.99 1.34 2.98 1 4 C0.34 4 -0.32 4 -1 4 C-2.14804062 7.68017836 -2.15710433 11.19279683 -2.2109375 15.03125 C-2.23899386 16.41277251 -2.26765823 17.79428279 -2.296875 19.17578125 C-2.33817613 21.3416322 -2.37508798 23.50725145 -2.40136719 25.67333984 C-2.42900364 27.77228111 -2.47485246 29.87020299 -2.5234375 31.96875 C-2.54325684 33.22107422 -2.56307617 34.47339844 -2.58349609 35.76367188 C-3.01955103 39.15191584 -3.69039267 40.54848721 -6 43 C-6.125 36.375 -6.125 36.375 -5 33 C-4.84929203 30.86338742 -4.7514034 28.72287876 -4.68359375 26.58203125 C-4.64169922 25.32841797 -4.59980469 24.07480469 -4.55664062 22.78320312 C-4.51732422 21.47287109 -4.47800781 20.16253906 -4.4375 18.8125 C-4.39429008 17.47720022 -4.350675 16.14191348 -4.30664062 14.80664062 C-4.20043498 11.53786703 -4.09839003 8.26901667 -4 5 C-3.34 5 -2.68 5 -2 5 C-2 4.01 -2 3.02 -2 2 C-1.34 2 -0.68 2 0 2 C0 1.34 0 0.68 0 0 Z " fill="#C0CAF5" transform="translate(59,180)"/>
<path d="M0 0 C0.33 0 0.66 0 1 0 C1.04970693 4.02014331 1.08586387 8.04016578 1.10986328 12.06054688 C1.1198759 13.4261385 1.13349005 14.79170894 1.15087891 16.15722656 C1.17533573 18.12815912 1.1854572 20.09925284 1.1953125 22.0703125 C1.20578613 23.25383301 1.21625977 24.43735352 1.22705078 25.65673828 C0.99409659 29.08692611 0.23025564 31.80303811 -1 35 C-1.33 35 -1.66 35 -2 35 C-1.8600776 30.66645485 -1.71199848 26.33322453 -1.5625 22 C-1.52318359 20.77925781 -1.48386719 19.55851562 -1.44335938 18.30078125 C-1.22691897 12.14055436 -0.90718169 6.09870047 0 0 Z " fill="#D3DAF8" transform="translate(66,189)"/>
<path d="M0 0 C4.95 0 9.9 0 15 0 C15 3.63 15 7.26 15 11 C6.375 12 6.375 12 3 12 C3.33 11.34 3.66 10.68 4 10 C6.97 10 9.94 10 13 10 C13 7.03 13 4.06 13 1 C7.39525319 1.51736124 2.3591425 2.28963537 -3 4 C-3 3.34 -3 2.68 -3 2 C-2.01 2 -1.02 2 0 2 C0 1.34 0 0.68 0 0 Z " fill="#BFC9F5" transform="translate(64,176)"/>
<path d="M0 0 C3.99207699 2.3952462 4.82254921 4.56676839 6 9 C6.19992994 11.46461248 6.3075717 13.93771257 6.34375 16.41015625 C6.3583728 17.10008163 6.37299561 17.79000702 6.38806152 18.50083923 C6.4498242 21.42721852 6.48985896 24.35379712 6.53173828 27.28051758 C6.56561129 29.428114 6.6106737 31.57528138 6.65625 33.72265625 C6.67494141 34.99890869 6.69363281 36.27516113 6.71289062 37.59008789 C6.98547597 40.82750246 7.6075373 43.08965569 9 46 C8.34 46 7.68 46 7 46 C4.65105255 42.30995799 4.76940254 39.1328897 4.8046875 34.828125 C4.8075174 34.1457074 4.81034729 33.46328979 4.81326294 32.76019287 C4.82441902 30.58994693 4.84951443 28.42012029 4.875 26.25 C4.88503574 24.77474556 4.89416056 23.29948463 4.90234375 21.82421875 C4.92434313 18.21601058 4.95884117 14.60804625 5 11 C4.34 11 3.68 11 3 11 C2.87625 9.9275 2.7525 8.855 2.625 7.75 C2.10356064 4.62136385 1.59911746 2.66519576 0 0 Z " fill="#C2CBF6" transform="translate(50,243)"/>
<path d="M0 0 C5.28 0 10.56 0 16 0 C16.33 0.99 16.66 1.98 17 3 C16.38125 2.855625 15.7625 2.71125 15.125 2.5625 C10.77462983 1.77943337 6.39978093 1.40153341 2 1 C2.33 3.64 2.66 6.28 3 9 C5.64 9.33 8.28 9.66 11 10 C11 10.33 11 10.66 11 11 C7.37 11 3.74 11 0 11 C0 7.37 0 3.74 0 0 Z " fill="#BEC8F5" transform="translate(423,176)"/>
<path d="M0 0 C1.47193312 2.94386623 0.84936173 5.37390036 0.5625 8.625 C0.40974609 10.40777344 0.40974609 10.40777344 0.25390625 12.2265625 C0.12822266 13.59941406 0.12822266 13.59941406 0 15 C-0.66 15 -1.32 15 -2 15 C-2 22.26 -2 29.52 -2 37 C-2.33 37 -2.66 37 -3 37 C-3.087842 32.52095901 -3.14067447 28.04214276 -3.1875 23.5625 C-3.21263672 22.30244141 -3.23777344 21.04238281 -3.26367188 19.74414062 C-3.32071111 12.46213204 -2.7964395 6.7452176 0 0 Z " fill="#C0CAF6" transform="translate(439,244)"/>
<path d="M0 0 C16.83097935 -1.0328101 16.83097935 -1.0328101 22.0625 2.8125 C23.84765625 4.39453125 23.84765625 4.39453125 25 6 C25 6.99 25 7.98 25 9 C24.484375 8.38125 23.96875 7.7625 23.4375 7.125 C20.45541385 4.52523258 17.81553799 3.88050877 14 3 C14 2.34 14 1.68 14 1 C9.38 1 4.76 1 0 1 C0 0.67 0 0.34 0 0 Z " fill="#9585CA" transform="translate(277,175)"/>
<path d="M0 0 C0.33 0.66 0.66 1.32 1 2 C1.66 2 2.32 2 3 2 C3 3.65 3 5.3 3 7 C3.66 7 4.32 7 5 7 C5.08071788 9.79224073 5.14035408 12.58216566 5.1875 15.375 C5.21263672 16.1690625 5.23777344 16.963125 5.26367188 17.78125 C5.29004405 19.85586148 5.15486462 21.93100865 5 24 C4.01 24.66 3.02 25.32 2 26 C2.15984375 25.45988281 2.3196875 24.91976562 2.484375 24.36328125 C4.13823404 16.78309396 3.49544376 9.84524402 0 3 C0 2.01 0 1.02 0 0 Z " fill="#C9C3E6" transform="translate(328,171)"/>
<path d="M0 0 C0.33 0.66 0.66 1.32 1 2 C-6.61866473 6.66448861 -13.07399823 8.3643266 -22 8 C-22 7.67 -22 7.34 -22 7 C-19.69 7 -17.38 7 -15 7 C-15 6.34 -15 5.68 -15 5 C-12.69 5 -10.38 5 -8 5 C-8 4.34 -8 3.68 -8 3 C-7.05125 2.690625 -6.1025 2.38125 -5.125 2.0625 C-2.13919592 1.12605258 -2.13919592 1.12605258 0 0 Z " fill="#8E88D4" transform="translate(323,281)"/>
<path d="M0 0 C0 0.33 0 0.66 0 1 C-2.05078125 1.22786458 -4.1015625 1.45572917 -6.15234375 1.68359375 C-8.01140229 1.81886614 -8.01140229 1.81886614 -9 3 C-10.76586914 3.02172852 -10.76586914 3.02172852 -13.03515625 2.87890625 C-13.84404297 2.83056641 -14.65292969 2.78222656 -15.48632812 2.73242188 C-16.7615332 2.64831055 -16.7615332 2.64831055 -18.0625 2.5625 C-18.91650391 2.51029297 -19.77050781 2.45808594 -20.65039062 2.40429688 C-22.76721995 2.27421239 -24.88365244 2.13770029 -27 2 C-27 1.67 -27 1.34 -27 1 C-17.98978127 0.41464936 -9.0343984 -0.14340315 0 0 Z " fill="#CDCEEF" transform="translate(310,289)"/>
<path d="M0 0 C1 3 1 3 0.1796875 5.15625 C-4.14071295 12.91744841 -4.14071295 12.91744841 -9 15 C-9.33 14.34 -9.66 13.68 -10 13 C-9.34 13 -8.68 13 -8 13 C-8 12.34 -8 11.68 -8 11 C-7.34 11 -6.68 11 -6 11 C-6 10.34 -6 9.68 -6 9 C-5.34 9 -4.68 9 -4 9 C-4 7.68 -4 6.36 -4 5 C-3.34 5 -2.68 5 -2 5 C-1.34 3.35 -0.68 1.7 0 0 Z " fill="#B8AFDE" transform="translate(329,199)"/>
<path d="M0 0 C0.33 0.66 0.66 1.32 1 2 C-5.75 6 -5.75 6 -8 6 C-8 5.01 -8 4.02 -8 3 C-7.05125 2.690625 -6.1025 2.38125 -5.125 2.0625 C-2.13919592 1.12605258 -2.13919592 1.12605258 0 0 Z " fill="#A39EDB" transform="translate(323,281)"/>
</svg>
